<?xml version="1.0" standalone="no"?>
<!DOCTYPE svg>
<svg version="1.0" xmlns="http://www.w3.org/2000/svg" width="512.000000pt" height="512.000000pt"
    viewBox="0 0 512.000000 512.000000" preserveAspectRatio="xMidYMid meet">
    <g transform="translate(0.000000,512.000000) scale(0.100000,-0.100000)" fill="#ffc72c" stroke="none">
        <path d="M4020 4689 c-86 -22 -282 -115 -387 -182 -40 -25 -127 -85 -194 -132
-93 -65 -125 -83 -135 -74 -17 14 -107 -33 -189 -100 l-60 -48 -130 19 c-191
29 -548 28 -738 -1 l-138 -21 -61 50 c-77 62 -175 115 -180 98 -6 -16 -59 16
-233 141 -236 171 -447 261 -605 261 -162 -1 -247 -82 -272 -261 -13 -96 1
-298 31 -424 10 -44 24 -110 30 -146 22 -132 77 -249 143 -304 46 -39 50 -30
12 33 -19 31 -40 76 -47 99 -6 24 -14 38 -18 32 -8 -14 -31 81 -60 256 -26
152 -32 413 -12 481 16 51 49 101 86 128 24 18 42 21 125 21 108 -1 187 -23
331 -93 127 -62 537 -346 555 -384 3 -7 3 -2 0 10 -5 21 -4 22 13 13 32 -16
138 -135 152 -169 7 -18 17 -29 22 -27 13 9 60 -61 75 -112 l14 -48 -5 42 c-3
26 -24 74 -51 120 l-45 78 55 -55 c31 -30 56 -50 56 -45 0 6 -18 42 -39 82
l-39 71 86 16 c160 31 369 41 541 28 134 -11 251 -29 313 -48 14 -4 11 -16
-24 -84 -42 -83 -48 -134 -8 -67 30 50 36 42 10 -14 -11 -24 -20 -53 -20 -64
0 -11 11 5 24 36 31 76 104 184 163 240 51 49 131 111 121 94 -3 -5 -25 -41
-48 -80 -50 -81 -110 -203 -110 -223 0 -7 16 16 35 53 87 168 163 245 388 396
152 102 285 172 396 209 82 27 206 45 252 36 130 -24 184 -154 184 -441 -1
-148 -3 -170 -34 -288 -33 -132 -79 -245 -125 -313 -35 -51 -33 -60 7 -33 17
12 -21 -30 -86 -94 -91 -89 -110 -113 -86 -104 17 7 51 29 76 51 24 21 46 37
48 35 8 -8 -27 -67 -60 -103 -19 -21 -39 -52 -44 -69 -21 -63 -49 -95 -113
-129 -35 -19 -77 -43 -95 -53 l-31 -19 -49 49 c-62 63 -267 231 -254 207 13
-23 80 -85 166 -154 74 -59 124 -108 111 -108 -5 0 -36 22 -70 48 -88 70 -98
72 -37 9 73 -75 94 -83 168 -62 136 39 333 171 293 195 -10 6 -2 24 29 70 22
35 48 88 56 119 8 31 24 83 36 116 71 207 91 276 116 405 24 126 27 170 28
330 0 220 -11 265 -83 342 -73 79 -180 97 -332 57z m-3293 -546 c-3 -10 -5 -4
-5 12 0 17 2 24 5 18 2 -7 2 -21 0 -30z m10 -75 c-3 -7 -5 -2 -5 12 0 14 2 19
5 13 2 -7 2 -19 0 -25z m10 -60 c-3 -7 -5 -2 -5 12 0 14 2 19 5 13 2 -7 2 -19
0 -25z" />
        <path d="M4137 4519 c-47 -11 -126 -51 -197 -99 -82 -56 -94 -75 -28 -45 63
29 197 65 241 65 l30 0 -24 -26 c-13 -15 -73 -66 -134 -114 -105 -85 -383
-365 -377 -382 1 -4 -4 -8 -12 -8 -8 0 -18 -4 -21 -10 -3 -5 38 6 92 25 l98
35 -37 -31 c-21 -17 -35 -35 -32 -40 3 -5 -31 -45 -76 -89 -44 -44 -76 -80
-72 -80 5 0 30 6 55 14 26 8 47 12 47 10 0 -10 -122 -83 -170 -101 -30 -12
-62 -24 -70 -27 -19 -8 77 4 99 11 9 4 3 -8 -14 -26 l-30 -33 40 16 c22 9 52
26 68 37 15 11 27 17 27 15 0 -3 -16 -32 -36 -66 -20 -34 -33 -68 -30 -76 14
-37 -120 18 -209 85 -74 57 -101 72 -110 64 -28 -27 46 89 110 172 110 143
121 169 41 94 l-44 -40 13 59 c31 133 81 219 194 335 42 43 110 104 151 135
96 72 103 78 60 57 -119 -60 -286 -209 -370 -331 -92 -133 -170 -337 -170
-444 0 -43 17 -61 132 -143 89 -63 129 -79 204 -81 30 0 54 -2 54 -3 0 -1 -16
-13 -36 -27 l-36 -24 28 -15 c37 -18 172 -62 244 -78 30 -7 70 -18 88 -26 50
-21 38 -6 -18 22 l-51 26 49 38 c27 21 70 67 96 102 182 241 296 560 299 829
2 193 -37 249 -156 219z m73 -142 c0 -18 -11 -51 -25 -75 -22 -38 -23 -47 -15
-100 42 -250 -48 -538 -207 -667 -30 -25 -59 -45 -64 -45 -5 0 5 19 21 43 l29
42 -29 3 -28 3 37 57 c21 31 40 62 43 67 4 6 -28 -7 -70 -27 -91 -44 -126 -50
-62 -9 44 27 165 149 157 157 -2 3 -35 -6 -72 -20 l-68 -24 41 41 c80 83 152
221 152 292 0 12 18 48 41 80 28 40 35 56 22 51 -53 -20 -195 -122 -278 -198
-81 -75 -156 -128 -181 -128 -4 0 11 13 32 28 21 16 86 79 143 140 115 125
187 183 233 188 41 5 101 35 106 53 3 10 -8 7 -34 -9 -41 -25 -40 -23 20 52
42 52 56 54 56 5z" />
        <path d="M3939 3843 c-13 -16 -12 -17 4 -4 16 13 21 21 13 21 -2 0 -10 -8 -17
-17z" />
        <path d="M867 4502 c-28 -31 -37 -72 -37 -172 0 -242 113 -593 257 -795 63
-88 143 -176 177 -194 14 -8 26 -18 26 -21 0 -4 -21 -17 -47 -28 -27 -12 -41
-21 -32 -22 37 0 130 35 210 81 47 27 110 55 140 63 l54 14 -50 7 -50 8 50 14
c37 11 243 137 294 180 2 1 -7 3 -22 3 -15 0 -60 -23 -107 -55 -45 -30 -104
-67 -132 -81 l-52 -26 17 25 c15 23 15 26 -5 43 -11 11 -26 31 -34 45 l-13 26
37 -13 c56 -20 69 -18 46 7 l-19 22 48 -7 c26 -4 47 -5 47 -2 0 2 -24 15 -52
29 -29 13 -64 34 -78 45 l-25 21 38 -10 c65 -17 63 -5 -9 48 -38 28 -85 68
-104 88 l-35 36 28 -10 c69 -27 71 -11 4 34 -37 25 -67 47 -67 50 0 2 16 -3
36 -11 20 -8 37 -14 39 -12 1 2 -49 51 -112 110 -111 104 -219 174 -305 198
l-30 9 18 -27 c10 -15 30 -45 46 -66 15 -21 28 -46 28 -56 0 -24 54 -105 134
-200 101 -120 106 -129 59 -92 -55 43 -123 123 -168 197 -38 64 -43 58 -19
-26 33 -113 138 -250 249 -323 22 -14 37 -26 34 -26 -9 0 -72 27 -142 60 -77
38 -85 38 -55 -2 13 -18 35 -50 48 -72 l23 -38 -46 3 c-26 2 -47 4 -47 3 0 -1
16 -21 34 -45 19 -24 33 -45 31 -47 -8 -8 -62 29 -96 65 -122 131 -199 368
-185 568 12 160 16 176 39 169 17 -5 15 0 -10 32 -33 42 -59 101 -50 111 10
10 189 -27 249 -51 70 -29 66 -19 -13 35 -135 91 -253 124 -292 81z" />
        <path d="M1300 4466 c0 -3 9 -10 20 -16 11 -6 20 -8 20 -6 0 3 -9 10 -20 16
-11 6 -20 8 -20 6z" />
        <path d="M1350 4437 c0 -3 35 -31 77 -62 188 -142 314 -293 353 -425 31 -104
28 -109 -37 -51 -31 28 -58 49 -60 47 -2 -2 27 -48 64 -102 37 -54 79 -121 94
-148 l27 -50 7 38 c10 51 -2 166 -26 242 -11 35 -42 96 -69 136 -60 90 -209
237 -310 304 -79 53 -120 78 -120 71z" />
        <path d="M994 4346 c23 -37 31 -56 23 -60 -7 -2 2 -2 19 1 36 6 89 -18 179
-82 62 -44 113 -93 85 -83 -8 3 26 -37 77 -89 51 -53 90 -99 88 -103 -3 -5 6
-11 19 -14 13 -3 31 -8 39 -12 8 -3 -13 23 -46 58 -34 35 -99 105 -145 156
-46 50 -109 111 -140 135 -53 41 -218 147 -228 147 -3 0 11 -24 30 -54z" />
        <path d="M2477 3890 c3 -74 7 -137 9 -139 8 -8 2 185 -6 229 -6 29 -7 -3 -3
-90z" />
        <path d="M2590 3888 c0 -81 4 -139 10 -143 13 -8 13 245 0 265 -7 10 -10 -30
-10 -122z" />
        <path d="M1160 3777 c0 -2 14 -16 31 -33 18 -17 28 -22 24 -12 -6 14 -55 55
-55 45z" />
        <path d="M3535 3759 c-22 -11 -32 -17 -22 -14 10 3 24 5 31 5 7 0 21 7 32 15
27 20 7 17 -41 -6z" />
        <path d="M1595 3756 c17 -7 44 -16 60 -19 l30 -6 -31 14 c-17 8 -44 16 -60 20
l-29 5 30 -14z" />
        <path d="M4286 3745 c-9 -26 -7 -32 5 -12 6 10 9 21 6 23 -2 3 -7 -2 -11 -11z" />
        <path d="M2555 3330 c0 -212 1 -298 2 -192 2 105 2 279 0 385 -1 105 -2 19 -2
-193z" />
        <path d="M4261 3683 c-10 -26 -10 -27 4 -9 8 11 15 23 15 28 0 15 -7 8 -19
-19z" />
        <path d="M2155 3486 c41 -60 95 -144 121 -187 25 -44 48 -79 51 -79 17 0 -155
269 -217 340 -17 19 3 -14 45 -74z" />
        <path d="M3019 3563 c-13 -16 -12 -17 4 -4 9 7 17 15 17 17 0 8 -8 3 -21 -13z" />
        <path d="M835 3554 c4 -10 14 -47 21 -82 8 -35 19 -73 25 -85 40 -76 119 -194
151 -226 36 -37 122 -89 183 -111 32 -11 30 -8 -113 121 -28 26 -63 71 -78
100 -15 30 -37 68 -50 84 -12 17 -28 44 -34 60 -11 30 -11 29 32 -11 24 -23
53 -47 66 -53 19 -10 17 -5 -13 35 -20 26 -43 61 -52 78 -18 36 -29 45 -97 82
-43 24 -48 25 -41 8z" />
        <path d="M2968 3498 c-36 -45 -146 -207 -167 -245 -24 -45 -2 -21 40 45 24 37
72 106 106 155 67 94 76 112 21 45z" />
        <path d="M1482 3281 c-43 -33 -109 -92 -145 -131 -65 -68 -124 -147 -116 -154
2 -2 81 75 175 170 94 96 170 174 168 174 -1 0 -38 -27 -82 -59z" />
        <path d="M1718 3237 c-60 -22 -138 -63 -138 -72 0 -2 24 7 53 20 221 103 485
52 651 -125 108 -115 118 -199 59 -462 -29 -131 -37 -190 -40 -298 -2 -74 -1
-160 4 -190 6 -42 8 -14 9 115 0 156 3 182 33 315 61 268 65 290 53 348 -17
84 -51 139 -129 212 -50 46 -100 81 -160 111 -86 43 -89 43 -208 47 -107 2
-127 0 -187 -21z" />
        <path d="M3094 3250 c-138 -20 -321 -156 -380 -283 -37 -80 -33 -161 18 -381
42 -179 43 -183 43 -366 0 -127 2 -170 8 -140 5 25 9 101 10 170 1 127 -6 177
-59 410 -32 141 -32 228 1 299 58 123 247 256 383 268 73 7 165 -10 239 -42
29 -13 53 -22 53 -20 0 2 -19 14 -42 28 -86 50 -184 70 -274 57z" />
        <path d="M920 3192 c0 -85 62 -170 171 -231 l57 -31 -62 -59 c-33 -33 -70 -74
-80 -92 l-19 -32 57 7 58 6 -20 -32 c-11 -18 -32 -55 -48 -83 -15 -27 -53 -88
-83 -135 -45 -71 -50 -81 -27 -67 14 9 37 24 51 33 14 9 28 14 31 11 3 -3 -2
-29 -11 -59 -18 -58 -32 -264 -21 -321 l7 -36 63 34 c73 40 90 44 81 15 -8
-25 15 -35 100 -44 33 -4 78 -9 100 -11 l40 -5 -40 20 c-22 11 -52 20 -67 20
-14 0 -34 3 -43 7 -15 5 -15 8 6 25 l24 20 -42 -5 c-47 -6 -54 5 -32 45 12 22
17 22 -66 2 -26 -6 -30 2 -26 49 4 32 -10 17 -36 -39 -14 -30 -27 -54 -29 -52
-6 6 15 189 27 232 14 54 112 248 155 309 62 86 -24 13 -124 -106 -18 -21 -32
-35 -32 -33 0 13 126 235 152 269 35 45 28 47 -32 7 -111 -74 -61 2 58 87 34
25 62 46 62 48 0 2 -19 3 -43 2 -33 -1 -56 6 -101 33 -76 45 -159 128 -190
188 l-25 47 -1 -43z" />
        <path d="M4177 3160 c-61 -76 -135 -135 -216 -172 -56 -25 -66 -27 -80 -14
-18 17 -112 58 -118 53 -2 -2 29 -31 68 -63 41 -34 88 -86 113 -124 55 -85
120 -210 108 -210 -14 0 -25 16 -87 132 -32 59 -71 120 -88 135 l-31 28 23
-35 c12 -19 29 -51 38 -70 8 -19 28 -61 44 -93 l30 -58 -43 22 c-24 12 -54 31
-67 43 -13 11 4 -14 38 -58 99 -125 121 -178 146 -351 32 -219 17 -269 -134
-465 -29 -37 -65 -100 -82 -145 -37 -93 -95 -195 -138 -245 l-30 -35 -1 45 -1
45 -23 -45 c-37 -71 -139 -310 -134 -315 2 -2 36 37 75 88 40 51 99 124 133
162 84 96 124 160 165 257 24 56 55 108 98 159 70 83 108 160 115 232 4 43 6
46 19 30 12 -16 14 -3 10 102 -5 131 -35 281 -68 348 l-21 42 33 -31 c19 -17
53 -45 77 -64 l44 -33 -71 141 c-74 148 -78 158 -60 146 18 -11 -18 51 -69
118 l-48 64 59 18 c112 33 188 106 217 210 19 69 9 71 -43 6z" />
        <path d="M1723 3019 c-62 -10 -139 -40 -193 -74 -22 -14 -40 -27 -40 -28 0 -2
33 13 74 33 40 20 97 41 126 48 106 25 236 9 318 -39 18 -10 30 -14 27 -9 -12
19 -87 52 -154 66 -73 15 -84 15 -158 3z" />
        <path d="M3204 3015 c-53 -11 -124 -39 -124 -49 0 -1 30 8 68 20 117 41 261
29 385 -31 28 -14 43 -18 32 -9 -31 25 -104 55 -175 70 -78 17 -106 16 -186
-1z" />
        <path d="M1700 2869 c-41 -10 -93 -21 -115 -25 -37 -7 -35 -8 35 -15 106 -9
115 -14 162 -77 22 -31 53 -67 67 -79 31 -27 110 -53 160 -53 42 0 93 -28 117
-65 35 -54 23 -104 -67 -281 -46 -90 -80 -166 -77 -169 3 -3 21 20 39 52 18
32 63 105 100 163 110 173 116 199 73 321 -14 41 -30 92 -36 114 -27 105 -26
104 -27 41 l-1 -59 -50 47 c-28 26 -78 60 -113 76 -74 36 -147 38 -267 9z
m273 -51 c9 -5 17 -13 17 -18 0 -16 -30 -11 -36 5 -5 12 -10 13 -20 4 -8 -6
-25 -8 -40 -5 -22 6 -24 9 -13 22 13 15 54 12 92 -8z m-77 -50 c32 -63 65 -72
112 -33 37 31 38 31 47 -2 9 -39 -23 -63 -84 -63 -55 0 -104 27 -126 69 -22
43 -19 61 10 61 18 0 29 -9 41 -32z" />
        <path d="M3147 2876 c-49 -18 -142 -75 -170 -104 l-22 -24 -11 54 -12 53 -1
-58 c0 -32 -8 -72 -17 -89 -9 -17 -25 -63 -35 -101 -18 -65 -19 -73 -4 -117 9
-26 41 -87 72 -136 32 -49 79 -129 105 -179 27 -49 45 -76 42 -60 -11 49 -39
116 -92 217 -60 113 -72 170 -47 222 22 46 58 65 144 77 79 12 125 39 182 111
58 74 69 80 166 86 51 3 79 8 71 13 -7 5 -29 9 -48 9 -20 0 -68 9 -108 20 -82
23 -160 25 -215 6z m33 -49 c0 -18 -47 -40 -56 -26 -8 14 15 39 37 39 11 0 19
-6 19 -13z m26 -22 c-4 -13 -2 -13 14 -5 25 14 30 13 30 -6 0 -31 -42 -84 -81
-104 -46 -24 -61 -25 -99 -5 -33 17 -47 50 -29 71 10 13 16 11 39 -11 45 -43
81 -29 110 43 7 17 15 32 17 32 3 0 3 -7 -1 -15z" />
        <path d="M3835 2615 c108 -159 113 -165 81 -92 -14 32 -48 86 -75 120 -91 115
-94 103 -6 -28z" />
        <path d="M1279 2687 c-41 -52 -97 -149 -113 -194 -8 -24 -14 -43 -12 -43 4 0
116 191 140 238 21 40 18 40 -15 -1z" />
        <path d="M1620 2547 c0 -17 31 -80 55 -111 46 -61 113 -79 185 -52 161 62 161
63 15 32 -103 -22 -172 6 -226 92 -16 25 -29 43 -29 39z" />
        <path d="M3501 2539 c-2 -31 -62 -100 -104 -120 -54 -24 -110 -24 -189 1 -100
31 -102 22 -3 -17 105 -41 170 -42 223 -5 33 24 87 123 79 144 -4 9 -6 8 -6
-3z" />
        <path d="M3858 2359 c30 -17 56 -29 58 -27 6 7 -79 58 -96 58 -8 0 9 -14 38
-31z" />
        <path d="M1205 2354 c-16 -14 -21 -21 -10 -16 30 16 61 41 50 41 -5 0 -23 -11
-40 -25z" />
        <path d="M4020 2218 l0 -27 -47 14 c-26 8 -48 13 -50 12 -1 -2 19 -29 45 -60
42 -50 48 -55 60 -40 14 20 16 92 2 113 -8 12 -10 9 -10 -12z" />
        <path d="M3475 2181 c-87 -41 -189 -113 -278 -197 -82 -77 -97 -86 -97 -56 2
46 45 103 133 175 63 52 64 62 2 21 -53 -36 -121 -101 -147 -142 -17 -27 -19
-43 -14 -82 l7 -50 -51 -36 c-27 -20 -50 -38 -50 -40 0 -7 78 35 85 46 12 20
25 10 25 -19 0 -37 -16 -53 -76 -76 -60 -23 -46 -31 20 -11 42 13 47 13 42 -1
-3 -8 -6 -19 -6 -24 0 -5 -21 -19 -46 -30 -51 -21 -54 -38 -5 -21 25 9 31 8
31 -4 0 -7 -3 -14 -7 -14 -5 -1 -25 -15 -46 -33 -36 -31 -36 -32 -12 -32 14 0
25 3 25 8 0 4 14 7 31 7 l32 0 -45 -52 c-26 -30 -68 -64 -103 -82 -56 -29 -65
-31 -174 -31 -131 0 -191 15 -191 46 0 14 14 26 46 39 55 24 171 132 190 177
37 86 5 170 -81 213 -45 22 -63 25 -170 25 -108 0 -125 -2 -169 -25 -28 -14
-58 -37 -69 -51 -25 -34 -32 -98 -17 -145 18 -54 145 -177 202 -196 30 -10 44
-21 46 -36 5 -31 -59 -46 -193 -47 -101 0 -115 2 -167 28 -35 17 -71 45 -91
70 -55 69 -55 70 -7 62 51 -9 48 8 -5 25 -19 6 -40 20 -45 31 -12 22 -8 23 38
10 17 -5 32 -6 32 -1 0 4 -20 14 -45 21 -35 10 -47 20 -55 43 -15 45 -13 47
28 30 103 -44 110 -37 12 13 -44 22 -56 33 -58 55 -3 23 0 27 15 21 17 -6 17
-5 -1 15 -35 41 -8 34 50 -12 32 -25 60 -43 63 -41 2 3 2 6 0 8 -57 40 -129
113 -129 131 0 60 -121 181 -228 227 -81 35 -98 31 -23 -5 88 -43 204 -153
214 -201 3 -16 4 -31 3 -32 0 -1 -64 37 -141 84 -138 84 -256 145 -305 158
-14 3 11 -13 55 -37 95 -51 244 -149 245 -162 0 -4 -10 -2 -22 6 -29 19 -111
45 -163 52 -30 4 -22 -1 30 -18 39 -12 90 -33 115 -46 91 -47 202 -131 189
-145 -3 -2 -54 9 -114 26 -61 16 -119 29 -130 28 -11 -1 6 -8 38 -16 32 -9 56
-17 55 -19 -2 -2 -46 3 -98 11 -119 18 -152 18 -80 -1 30 -8 62 -17 70 -21 8
-3 27 -5 42 -4 39 3 200 -38 218 -56 13 -13 13 -15 -5 -10 -11 3 -49 11 -85
18 -35 7 -76 18 -90 26 -28 15 -64 19 -42 4 8 -5 -17 -10 -65 -14 -86 -7 -168
-28 -198 -52 -12 -9 0 -6 30 7 39 17 76 23 165 26 l115 4 37 -30 37 -29 -47
-7 c-72 -10 -135 -33 -168 -64 -17 -15 -22 -21 -13 -14 31 24 117 51 182 58
54 5 69 4 91 -12 29 -22 33 -34 11 -34 -27 0 -135 -40 -170 -63 -49 -31 -43
-40 8 -12 48 27 159 58 185 52 14 -3 12 -6 -8 -15 -24 -10 -23 -11 15 -12 l40
-1 -30 -21 c-16 -12 -61 -53 -100 -91 -69 -69 -69 -69 -10 -18 l60 52 7 -63
c5 -43 20 -88 47 -143 60 -118 89 -146 37 -35 -47 101 -65 161 -66 222 0 31 5
40 30 53 40 21 55 19 74 -10 9 -14 13 -25 9 -25 -5 0 -14 -10 -22 -22 -14 -23
-14 -23 7 -4 22 19 22 18 66 -22 49 -45 104 -76 154 -87 20 -4 53 -27 85 -58
69 -69 167 -121 227 -121 78 0 234 84 265 143 10 19 29 30 73 43 45 13 74 31
115 68 30 27 58 50 63 50 4 0 26 -17 49 -37 l40 -38 -42 45 -42 45 23 28 c28
35 50 34 87 -2 51 -52 38 -123 -55 -290 -24 -44 -43 -81 -41 -81 9 0 88 125
116 183 44 94 36 167 -25 215 -29 22 -25 31 13 33 25 1 25 2 -4 10 -20 6 -8 7
39 3 38 -3 93 -13 122 -23 29 -10 51 -14 48 -10 -8 13 -114 49 -167 57 l-52 7
23 23 c16 16 34 22 65 22 74 -1 181 -20 220 -41 21 -10 36 -15 32 -9 -15 25
-94 52 -181 63 l-94 12 36 29 36 28 126 -5 c70 -3 138 -8 152 -11 14 -4 7 1
-15 9 -22 9 -85 19 -140 23 l-100 7 35 20 c19 10 67 24 105 31 65 11 67 12 25
13 -25 0 -83 -4 -129 -9 -112 -14 -115 -6 -4 11 48 8 79 15 67 17 -29 4 -215
-35 -275 -57 -48 -19 -49 -19 -49 -1 0 25 42 55 175 129 61 33 115 64 120 68
6 5 65 33 132 63 67 30 118 56 114 58 -5 2 -58 -16 -118 -38 -220 -85 -266
-101 -282 -98 -22 4 108 110 216 176 96 58 99 67 8 23z m-269 -267 c-54 -30
-100 -53 -102 -51 -9 8 71 61 125 84 90 36 83 27 -23 -33z m-1331 -3 c28 -16
58 -37 65 -47 17 -20 18 -20 -80 41 -67 42 -55 46 15 6z m1392 -97 c-3 -3 -12
-4 -19 -1 -8 3 -5 6 6 6 11 1 17 -2 13 -5z m63 -21 c-58 -26 -223 -63 -209
-47 12 15 82 38 160 53 71 14 88 12 49 -6z m-95 -69 c-24 -18 -124 -48 -133
-40 -12 12 18 29 75 41 77 17 81 17 58 -1z m-1295 -17 c22 -9 22 -11 7 -14
-28 -7 -81 5 -103 23 -18 14 -16 14 26 8 25 -3 56 -11 70 -17z m473 -41 c7
-17 -1 -26 -24 -26 -24 0 -35 20 -18 31 20 13 36 11 42 -5z m301 -5 c11 -13
14 -21 7 -26 -19 -11 -51 5 -51 26 0 24 22 25 44 0z m-729 -12 c5 -6 3 -9 -5
-9 -27 0 -60 12 -60 21 0 11 50 1 65 -12z m1169 1 c-16 -16 -74 -30 -74 -19 0
11 37 27 65 28 13 1 16 -2 9 -9z m-1167 -46 c-3 -3 -12 -4 -19 -1 -8 3 -5 6 6
6 11 1 17 -2 13 -5z m793 -268 c0 -11 -112 -75 -158 -91 -79 -26 -152 -8 -247
59 l-30 21 215 5 c118 3 216 7 218 8 1 1 2 0 2 -2z" />
        <path d="M3840 2151 c0 -5 13 -14 30 -21 29 -12 32 -30 5 -30 -17 0 -128 -41
-123 -45 5 -4 217 31 224 37 15 16 -10 48 -44 58 -45 12 -92 13 -92 1z" />
        <path d="M1017 2084 c-14 -14 -7 -93 13 -139 11 -26 49 -77 84 -114 46 -47 76
-90 104 -151 23 -47 58 -112 80 -146 48 -73 197 -240 283 -314 l61 -54 -28 45
c-15 24 -54 98 -86 164 -47 95 -58 112 -54 81 l5 -39 -25 24 c-14 13 -44 56
-66 94 -34 60 -38 65 -33 35 6 -34 5 -34 -10 -15 -9 11 -43 75 -76 143 -43 91
-76 143 -125 198 -36 42 -78 103 -92 136 -15 33 -31 56 -35 52z" />
        <path d="M2762 2010 c0 -14 2 -19 5 -12 2 6 2 18 0 25 -3 6 -5 1 -5 -13z" />
        <path d="M1397 1990 c-57 -36 -173 -147 -164 -156 4 -4 38 23 77 60 39 36 88
78 110 92 22 15 40 28 40 30 0 10 -20 2 -63 -26z" />
        <path d="M3620 2006 c0 -2 24 -18 53 -34 29 -17 85 -53 123 -82 l69 -51 -58
54 c-61 57 -187 134 -187 113z" />
        <path d="M1648 1853 c6 -2 18 -2 25 0 6 3 1 5 -13 5 -14 0 -19 -2 -12 -5z" />
        <path d="M1578 1813 c7 -3 16 -2 19 1 4 3 -2 6 -13 5 -11 0 -14 -3 -6 -6z" />
        <path d="M1538 1803 c7 -3 16 -2 19 1 4 3 -2 6 -13 5 -11 0 -14 -3 -6 -6z" />
        <path d="M1628 1793 c12 -2 30 -2 40 0 9 3 -1 5 -23 4 -22 0 -30 -2 -17 -4z" />
        <path d="M1550 1458 c0 -109 73 -230 246 -405 93 -94 122 -113 108 -71 -14 46
189 -153 587 -575 l65 -69 153 173 c148 168 435 459 453 459 4 0 8 -7 8 -15 0
-39 239 177 328 295 25 35 47 78 57 115 27 104 16 128 -22 46 -13 -26 -49 -84
-81 -129 -61 -85 -191 -236 -198 -229 -3 2 0 16 5 31 16 39 -1 31 -39 -19 -19
-25 -36 -45 -38 -45 -3 0 -2 19 1 43 l6 42 -32 -40 c-18 -22 -86 -98 -152
-170 -66 -71 -154 -168 -194 -215 -118 -134 -244 -270 -251 -270 -3 0 -76 75
-162 168 -163 175 -473 485 -521 523 l-28 22 7 -39 c3 -22 4 -37 2 -34 -78 77
-201 246 -263 362 -43 80 -45 82 -45 46z" />
        <path d="M2040 1220 c11 -37 80 -162 111 -200 12 -14 -7 29 -41 95 -69 132
-85 156 -70 105z" />
        <path d="M3012 1137 c-30 -56 -45 -91 -34 -78 28 35 94 160 90 171 -2 5 -27
-36 -56 -93z" />
        <path d="M2725 1189 c-12 -52 -35 -171 -34 -177 0 -4 5 4 10 18 14 33 41 172
35 178 -3 2 -8 -6 -11 -19z" />
        <path d="M2400 1193 c0 -6 16 -67 36 -135 20 -67 45 -152 54 -188 22 -81 25
-47 5 52 -25 118 -93 315 -95 271z" />
        <path d="M2590 1048 c-20 -65 -23 -96 -25 -288 l-3 -215 8 171 c5 100 17 218
30 284 11 62 19 114 17 116 -2 2 -14 -28 -27 -68z" />
        <path d="M2511 784 c0 -11 3 -14 6 -6 3 7 2 16 -1 19 -3 4 -6 -2 -5 -13z" />
    </g>
</svg>