<?xml version="1.0" encoding="UTF-8"?>
<svg id="a" xmlns="http://www.w3.org/2000/svg" viewBox="0 0 48 48">
    <defs>
        <style>
            .a {
                fill: none;
                stroke: #ff00c8;
                stroke-linecap: round;
                stroke-linejoin: round;
            }
            .b {
                fill: none;
                stroke: #ffffff;
                stroke-linecap: round;
                stroke-linejoin: round;
            }
            .c {
                fill: none;
                stroke: #0011ff;
                stroke-linecap: round;
                stroke-linejoin: round;
            }
        </style>
    </defs>
    <path id="1" class="c" d="m29.4973,11.7964l-5.4973,5.4973-5.4973-5.4973,5.4973-9.2964,5.4973,9.2964Z" />
    <path id="2" class="b" d="m18.1958,20.8696l-7.5107,2.0133-5.3047-9.4102,10.802-.1138,2.0133,7.5107Z" />
    <path id="3" class="c" d="m16.1824,34.641l-10.802-.1138,5.3047-9.4102,7.5107,2.0133-2.0133,7.5107Z" />
    <path id="4" class="a" d="m29.4973,36.2036l-5.4973,9.2964-5.4973-9.2964,5.4973-5.4973,5.4973,5.4973Z" />
    <path id="5" class="b" d="m42.6196,13.4728l-5.3047,9.4102-7.5107-2.0133,2.0133-7.5107,10.802.1138Z" />
    <path id="6" class="c" d="m42.6196,34.5272l-10.802.1138-2.0133-7.5107,7.5107-2.0133,5.3047,9.4102Z" />
</svg>